<svg width="35" height="30" viewBox="0 0 35 30" fill="none" xmlns="http://www.w3.org/2000/svg">
<path fill-rule="evenodd" clip-rule="evenodd" d="M10.0293 27.5002L14.5798 28.661V27.143L14.9513 26.7859H17.5515V28.5716V29.8216H14.7655L11.3294 28.393L10.0293 27.5002Z" fill="#CDBDB2"/>
<path fill-rule="evenodd" clip-rule="evenodd" d="M24.8877 27.5002L20.4301 28.661V27.143L20.0587 26.7859H17.4584V28.5716V29.8216H20.2444L23.6804 28.393L24.8877 27.5002Z" fill="#CDBDB2"/>
<path fill-rule="evenodd" clip-rule="evenodd" d="M14.9511 24.1965L14.5796 27.1429L15.0438 26.7857H19.8728L20.43 27.1429L20.0586 24.1965L19.3156 23.75L15.601 23.8394L14.9511 24.1965Z" fill="#393939"/>
<path fill-rule="evenodd" clip-rule="evenodd" d="M12.4438 4.28589L14.6726 9.28589L15.6942 23.8395H19.3159L20.4303 9.28589L22.4733 4.28589H12.4438Z" fill="#F89C35"/>
<path fill-rule="evenodd" clip-rule="evenodd" d="M2.69301 15.2679L0.0927734 22.5L6.59336 22.1428H10.7722V19.0179L10.5865 12.5894L9.65784 13.3036L2.69301 15.2679Z" fill="#F89D35"/>
<path fill-rule="evenodd" clip-rule="evenodd" d="M7.61475 16.0715L15.2297 16.2501L14.394 20.0001L10.7722 19.1072L7.61475 16.0715Z" fill="#D87C30"/>
<path fill-rule="evenodd" clip-rule="evenodd" d="M7.61475 16.1609L10.7722 19.018V21.8752L7.61475 16.1609Z" fill="#EA8D3A"/>
<path fill-rule="evenodd" clip-rule="evenodd" d="M10.7725 19.1072L14.4871 20L15.6944 23.8394L14.8585 24.2857L10.7725 21.9643V19.1072Z" fill="#F89D35"/>
<path fill-rule="evenodd" clip-rule="evenodd" d="M10.7722 21.9644L10.0293 27.5001L14.9513 24.1966L10.7722 21.9644Z" fill="#EB8F35"/>
<path fill-rule="evenodd" clip-rule="evenodd" d="M15.2299 16.25L15.6943 23.8394L14.3013 19.9554L15.2299 16.25Z" fill="#EA8E3A"/>
<path fill-rule="evenodd" clip-rule="evenodd" d="M6.50049 22.0537L10.7723 21.9644L10.0294 27.5001L6.50049 22.0537Z" fill="#D87C30"/>
<path fill-rule="evenodd" clip-rule="evenodd" d="M2.13582 29.9109L10.0293 27.5001L6.50041 22.0537L0.0927734 22.5001L2.13582 29.9109Z" fill="#EB8F35"/>
<path fill-rule="evenodd" clip-rule="evenodd" d="M14.6725 9.28589L10.6794 12.5002L7.61475 16.0716L15.2297 16.3395L14.6725 9.28589Z" fill="#E8821E"/>
<path fill-rule="evenodd" clip-rule="evenodd" d="M10.0293 27.5L14.9513 24.1965L14.5798 27.0537V28.6608L11.2366 28.0357L10.0293 27.5Z" fill="#DFCEC3"/>
<path fill-rule="evenodd" clip-rule="evenodd" d="M24.8877 27.5L20.0587 24.1965L20.4301 27.0537V28.6608L23.7733 28.0357L24.8877 27.5Z" fill="#DFCEC3"/>
<path fill-rule="evenodd" clip-rule="evenodd" d="M13.1869 17.8572L14.2085 19.9108L10.5867 19.018L13.1869 17.8572Z" fill="#393939"/>
<path fill-rule="evenodd" clip-rule="evenodd" d="M2.04297 0.0893555L14.6727 9.2857L12.5369 4.2857L2.04297 0.0893555Z" fill="#E88F35"/>
<path fill-rule="evenodd" clip-rule="evenodd" d="M2.04267 0.0893555L0.371094 5.00007L1.29975 10.3572L0.64969 10.7144L1.57835 11.5179L0.835422 12.1429L1.85694 13.0358L1.20688 13.5715L2.69273 15.3572L9.65765 13.3036C13.0627 10.6846 14.7343 9.34531 14.6724 9.28579C14.6105 9.22626 10.4006 6.16078 2.04267 0.0893555Z" fill="#8E5A30"/>
<path fill-rule="evenodd" clip-rule="evenodd" d="M32.224 15.2679L34.8242 22.5L28.3236 22.1428H24.1448V19.0179L24.3305 12.5894L25.2591 13.3036L32.224 15.2679Z" fill="#F89D35"/>
<path fill-rule="evenodd" clip-rule="evenodd" d="M27.3022 16.0715L19.6873 16.2501L20.523 20.0001L24.1448 19.1072L27.3022 16.0715Z" fill="#D87C30"/>
<path fill-rule="evenodd" clip-rule="evenodd" d="M27.3022 16.1609L24.1448 19.018V21.8752L27.3022 16.1609Z" fill="#EA8D3A"/>
<path fill-rule="evenodd" clip-rule="evenodd" d="M24.1445 19.1072L20.4299 20L19.2226 23.8394L20.0584 24.2857L24.1445 21.9643V19.1072Z" fill="#F89D35"/>
<path fill-rule="evenodd" clip-rule="evenodd" d="M24.1448 21.9644L24.8877 27.5001L20.0587 24.2858L24.1448 21.9644Z" fill="#EB8F35"/>
<path fill-rule="evenodd" clip-rule="evenodd" d="M19.6871 16.25L19.2227 23.8394L20.6157 19.9554L19.6871 16.25Z" fill="#EA8E3A"/>
<path fill-rule="evenodd" clip-rule="evenodd" d="M28.4165 22.0537L24.1447 21.9644L24.8876 27.5001L28.4165 22.0537Z" fill="#D87C30"/>
<path fill-rule="evenodd" clip-rule="evenodd" d="M32.7812 29.9109L24.8877 27.5001L28.4166 22.0537L34.8242 22.5001L32.7812 29.9109Z" fill="#EB8F35"/>
<path fill-rule="evenodd" clip-rule="evenodd" d="M20.2445 9.28589L24.2376 12.5002L27.3022 16.0716L19.6873 16.3395L20.2445 9.28589Z" fill="#E8821E"/>
<path fill-rule="evenodd" clip-rule="evenodd" d="M21.7301 17.8572L20.7085 19.9108L24.3303 19.018L21.7301 17.8572Z" fill="#393939"/>
<path fill-rule="evenodd" clip-rule="evenodd" d="M32.874 0.0893555L20.2443 9.2857L22.3801 4.2857L32.874 0.0893555Z" fill="#E88F35"/>
<path fill-rule="evenodd" clip-rule="evenodd" d="M32.8743 0.0893555L34.5459 5.00007L33.6172 10.3572L34.2673 10.7144L33.3386 11.5179L34.0816 12.1429L33.06 13.0358L33.7101 13.5715L32.2243 15.3572L25.2593 13.3036C21.8543 10.6846 20.1827 9.34531 20.2446 9.28579C20.3065 9.22626 24.5164 6.16078 32.8743 0.0893555Z" fill="#8E5A30"/>
</svg>
