<svg width="49" height="30" viewBox="0 0 49 30" fill="none" xmlns="http://www.w3.org/2000/svg">
<path d="M10.0377 5.85857C18.0273 -1.95709 30.9853 -1.95709 38.975 5.85857L39.9358 6.79291C40.3403 7.18432 40.3403 7.81564 39.9358 8.20705L36.6489 11.4267C36.4466 11.6161 36.1306 11.6161 35.9283 11.4267L34.6009 10.1262C29.0258 4.6717 19.9868 4.6717 14.4118 10.1262L12.9959 11.5151C12.7936 11.7045 12.4776 11.7045 12.2753 11.5151L8.97575 8.30806C8.57121 7.91665 8.57121 7.28534 8.97575 6.89392L10.0377 5.85857ZM45.7763 12.5126L48.7092 15.3788C49.1138 15.7702 49.1138 16.4015 48.7092 16.7929L35.4985 29.7096C35.0939 30.101 34.4492 30.101 34.0573 29.7096L24.6896 20.5429C24.5885 20.4419 24.4241 20.4419 24.323 20.5429L14.9554 29.7096C14.5508 30.101 13.9061 30.101 13.5142 29.7096L0.303406 16.7929C-0.101135 16.4015 -0.101135 15.7702 0.303406 15.3788L3.23633 12.5126C3.64087 12.1212 4.2856 12.1212 4.6775 12.5126L14.0451 21.6793C14.1463 21.7803 14.3106 21.7803 14.4118 21.6793L23.7794 12.5126C24.184 12.1212 24.8287 12.1212 25.2206 12.5126L34.5882 21.6793C34.6894 21.7803 34.8537 21.7803 34.9549 21.6793L44.3225 12.5126C44.727 12.1212 45.3718 12.1212 45.7763 12.5126Z" fill="#3B99FC"/>
</svg>
